<svg width="32" height="32" viewBox="0 0 32 32" fill="none" xmlns="http://www.w3.org/2000/svg">
<g clip-path="url(#clip0_32_5)">
<path d="M10.4189 15.3844L12.6383 11.0988C12.6951 10.9905 12.7828 10.9015 12.8903 10.843C12.9977 10.7846 13.1201 10.7593 13.242 10.7704C13.3638 10.7815 13.4796 10.8286 13.5747 10.9055C13.6697 10.9825 13.7399 11.0859 13.7762 11.2027L16.0061 18.4792L18.2361 11.2027C18.2718 11.0857 18.3415 10.9819 18.4363 10.9046C18.5312 10.8273 18.6469 10.78 18.7687 10.7687C18.8905 10.7573 19.013 10.7825 19.1205 10.841C19.2279 10.8995 19.3156 10.9886 19.3722 11.097L21.6093 15.3844H32.0017V12.5256C32.0017 12.0645 31.8186 11.6223 31.4925 11.2962C31.1665 10.9702 30.7243 10.787 30.2632 10.787H21.2306L21.2147 9.33561V1.73854C21.2147 1.27745 21.0315 0.835236 20.7055 0.509197C20.3795 0.183158 19.9373 0 19.4762 0H12.5326C12.3044 -1.17376e-07 12.0784 0.0449744 11.8675 0.132366C11.6567 0.219757 11.4652 0.347844 11.3039 0.509305C11.1426 0.670766 11.0147 0.862435 10.9275 1.07335C10.8403 1.28427 10.7956 1.51031 10.7958 1.73854V10.787H1.73851C1.27742 10.787 0.835216 10.9702 0.509177 11.2962C0.183139 11.6223 -3.05176e-05 12.0645 -3.05176e-05 12.5256V15.3844H10.4189Z" fill="url(#paint0_linear_32_5)"/>
<path d="M21.2306 16.6174C21.1181 16.6171 21.0077 16.5861 20.9115 16.5278C20.8153 16.4694 20.7368 16.3859 20.6845 16.2862L18.9707 13.0012L16.5839 20.7638C16.5446 20.8895 16.4662 20.9994 16.36 21.0774C16.2539 21.1555 16.1256 21.1975 15.9938 21.1975C15.8621 21.1975 15.7338 21.1555 15.6277 21.0774C15.5215 20.9994 15.4431 20.8895 15.4038 20.7638L13.0276 13.0135L11.3278 16.2915C11.2758 16.3919 11.1972 16.4761 11.1006 16.5348C11.0039 16.5935 10.893 16.6245 10.78 16.6244H0V19.4709C0 19.932 0.183169 20.3742 0.509208 20.7002C0.835247 21.0263 1.27745 21.2094 1.73854 21.2094H10.7888V30.2579C10.7886 30.4862 10.8333 30.7122 10.9205 30.9231C11.0077 31.134 11.1356 31.3257 11.2969 31.4872C11.4582 31.6486 11.6497 31.7767 11.8605 31.8641C12.0714 31.9515 12.2974 31.9965 12.5256 31.9965H19.4762C19.9373 31.9965 20.3795 31.8133 20.7055 31.4873C21.0316 31.1612 21.2147 30.719 21.2147 30.2579V21.2147H30.2632C30.7243 21.2147 31.1665 21.0316 31.4926 20.7055C31.8186 20.3795 32.0018 19.9373 32.0018 19.4762V16.6174H21.2306Z" fill="url(#paint1_linear_32_5)"/>
<path opacity="0.3" d="M19.4762 -4.87043e-05H12.5326C12.3044 -4.88217e-05 12.0784 0.0449257 11.8675 0.132317C11.6567 0.219708 11.4652 0.347795 11.3039 0.509256C11.1426 0.670717 11.0147 0.862386 10.9275 1.0733C10.8403 1.28422 10.7956 1.51026 10.7958 1.73849V10.787H1.73851C1.27742 10.787 0.835216 10.9701 0.509177 11.2962C0.183139 11.6222 -3.05176e-05 12.0644 -3.05176e-05 12.5255V15.3843H10.4189L12.6383 11.0987C12.6951 10.9904 12.7828 10.9014 12.8903 10.843C12.9977 10.7845 13.1201 10.7592 13.242 10.7704C13.3638 10.7815 13.4796 10.8285 13.5747 10.9055C13.6697 10.9824 13.7399 11.0859 13.7762 11.2027L14.2623 12.788L21.0086 0.905321C20.8585 0.630326 20.6368 0.401026 20.367 0.241654C20.0973 0.0822824 19.7895 -0.00122857 19.4762 -4.87043e-05Z" fill="white"/>
<path opacity="0.3" d="M13.0346 13.0064L11.3348 16.2844C11.2828 16.3848 11.2042 16.469 11.1076 16.5277C11.011 16.5864 10.9001 16.6174 10.787 16.6174H0V19.4709C0 19.932 0.183169 20.3742 0.509208 20.7002C0.835247 21.0262 1.27745 21.2094 1.73854 21.2094H9.47653L13.4133 14.2658L13.0346 13.0064Z" fill="white"/>
</g>
<defs>
<linearGradient id="paint0_linear_32_5" x1="16.0009" y1="-2.56289" x2="16.0009" y2="12.6753" gradientUnits="userSpaceOnUse">
<stop stop-color="#D6D0FD"/>
<stop offset="0.593837" stop-color="#3B82F6"/>
</linearGradient>
<linearGradient id="paint1_linear_32_5" x1="16.0009" y1="13.0839" x2="16.0009" y2="32.3998" gradientUnits="userSpaceOnUse">
<stop stop-color="#D6D0FD"/>
<stop offset="0.530052" stop-color="#3B82F6"/>
</linearGradient>
<clipPath id="clip0_32_5">
<rect width="32" height="32" fill="white"/>
</clipPath>
</defs>
</svg>
